<mxfile host="app.diagrams.net" modified="2020-11-22T17:14:22.028Z" agent="5.0 (Windows NT 10.0; Win64; x64) AppleWebKit/537.36 (KHTML, like Gecko) Chrome/86.0.4240.198 Safari/537.36" etag="P2DZYlgDqA4YoW_EVZPo" version="13.10.1" type="github">
  <diagram name="Page-1" id="8ce9d11a-91a2-4d17-14d8-a56ed91bf033">
    <mxGraphModel dx="780" dy="1144" grid="1" gridSize="10" guides="1" tooltips="1" connect="1" arrows="1" fold="1" page="1" pageScale="1" pageWidth="1100" pageHeight="850" background="#ffffff" math="0" shadow="0">
      <root>
        <mxCell id="0" />
        <mxCell id="1" parent="0" />
        <mxCell id="YlZHi-kZIbyjFeBob5CN-10" style="edgeStyle=orthogonalEdgeStyle;rounded=0;orthogonalLoop=1;jettySize=auto;html=1;exitX=1;exitY=0.5;exitDx=0;exitDy=0;" edge="1" parent="1" source="YlZHi-kZIbyjFeBob5CN-1" target="YlZHi-kZIbyjFeBob5CN-5">
          <mxGeometry relative="1" as="geometry" />
        </mxCell>
        <mxCell id="YlZHi-kZIbyjFeBob5CN-36" style="edgeStyle=orthogonalEdgeStyle;rounded=0;orthogonalLoop=1;jettySize=auto;html=1;" edge="1" parent="1" source="YlZHi-kZIbyjFeBob5CN-1" target="YlZHi-kZIbyjFeBob5CN-18">
          <mxGeometry relative="1" as="geometry" />
        </mxCell>
        <mxCell id="YlZHi-kZIbyjFeBob5CN-1" value="WHILE" style="rounded=0;whiteSpace=wrap;html=1;" vertex="1" parent="1">
          <mxGeometry x="170" y="150" width="120" height="60" as="geometry" />
        </mxCell>
        <mxCell id="YlZHi-kZIbyjFeBob5CN-5" value="Keep scanning" style="text;html=1;strokeColor=none;fillColor=none;align=center;verticalAlign=middle;whiteSpace=wrap;rounded=0;" vertex="1" parent="1">
          <mxGeometry x="340" y="170" width="120" height="20" as="geometry" />
        </mxCell>
        <mxCell id="YlZHi-kZIbyjFeBob5CN-6" value="TRY" style="rounded=0;whiteSpace=wrap;html=1;" vertex="1" parent="1">
          <mxGeometry x="230" y="230" width="90" height="50" as="geometry" />
        </mxCell>
        <mxCell id="YlZHi-kZIbyjFeBob5CN-12" value="Get users input&amp;nbsp;&lt;br&gt;1. Enter URL&lt;br&gt;2. Enter name of URL" style="text;html=1;strokeColor=none;fillColor=none;align=center;verticalAlign=middle;whiteSpace=wrap;rounded=0;" vertex="1" parent="1">
          <mxGeometry x="380" y="230" width="200" height="50" as="geometry" />
        </mxCell>
        <mxCell id="YlZHi-kZIbyjFeBob5CN-39" style="edgeStyle=orthogonalEdgeStyle;rounded=0;orthogonalLoop=1;jettySize=auto;html=1;exitX=1;exitY=0.5;exitDx=0;exitDy=0;" edge="1" parent="1" source="YlZHi-kZIbyjFeBob5CN-14" target="YlZHi-kZIbyjFeBob5CN-16">
          <mxGeometry relative="1" as="geometry" />
        </mxCell>
        <mxCell id="YlZHi-kZIbyjFeBob5CN-41" style="edgeStyle=orthogonalEdgeStyle;rounded=0;orthogonalLoop=1;jettySize=auto;html=1;exitX=0.5;exitY=1;exitDx=0;exitDy=0;entryX=0;entryY=0.5;entryDx=0;entryDy=0;" edge="1" parent="1" source="YlZHi-kZIbyjFeBob5CN-14" target="YlZHi-kZIbyjFeBob5CN-19">
          <mxGeometry relative="1" as="geometry" />
        </mxCell>
        <mxCell id="YlZHi-kZIbyjFeBob5CN-14" value="IF" style="rhombus;whiteSpace=wrap;html=1;" vertex="1" parent="1">
          <mxGeometry x="330" y="310" width="80" height="80" as="geometry" />
        </mxCell>
        <mxCell id="YlZHi-kZIbyjFeBob5CN-15" value="" style="endArrow=classic;html=1;exitX=1;exitY=0.5;exitDx=0;exitDy=0;" edge="1" parent="1" source="YlZHi-kZIbyjFeBob5CN-6" target="YlZHi-kZIbyjFeBob5CN-12">
          <mxGeometry width="50" height="50" relative="1" as="geometry">
            <mxPoint x="520" y="440" as="sourcePoint" />
            <mxPoint x="570" y="390" as="targetPoint" />
          </mxGeometry>
        </mxCell>
        <mxCell id="YlZHi-kZIbyjFeBob5CN-40" style="edgeStyle=orthogonalEdgeStyle;rounded=0;orthogonalLoop=1;jettySize=auto;html=1;exitX=0.5;exitY=1;exitDx=0;exitDy=0;entryX=0.5;entryY=0;entryDx=0;entryDy=0;" edge="1" parent="1" source="YlZHi-kZIbyjFeBob5CN-16" target="YlZHi-kZIbyjFeBob5CN-20">
          <mxGeometry relative="1" as="geometry" />
        </mxCell>
        <mxCell id="YlZHi-kZIbyjFeBob5CN-16" value="Use enters blank or keyword for exit" style="text;html=1;strokeColor=none;fillColor=none;align=center;verticalAlign=middle;whiteSpace=wrap;rounded=0;" vertex="1" parent="1">
          <mxGeometry x="490" y="315" width="150" height="70" as="geometry" />
        </mxCell>
        <mxCell id="YlZHi-kZIbyjFeBob5CN-35" style="edgeStyle=orthogonalEdgeStyle;rounded=0;orthogonalLoop=1;jettySize=auto;html=1;" edge="1" parent="1" source="YlZHi-kZIbyjFeBob5CN-18" target="YlZHi-kZIbyjFeBob5CN-21">
          <mxGeometry relative="1" as="geometry" />
        </mxCell>
        <mxCell id="YlZHi-kZIbyjFeBob5CN-18" value="EXCEPT&lt;br&gt;errors with inputs" style="shape=parallelogram;perimeter=parallelogramPerimeter;whiteSpace=wrap;html=1;fixedSize=1;" vertex="1" parent="1">
          <mxGeometry x="200" y="510" width="130" height="75" as="geometry" />
        </mxCell>
        <mxCell id="YlZHi-kZIbyjFeBob5CN-19" value="VALID NAME OR URL" style="text;html=1;strokeColor=none;fillColor=none;align=center;verticalAlign=middle;whiteSpace=wrap;rounded=0;" vertex="1" parent="1">
          <mxGeometry x="410" y="420" width="100" height="45" as="geometry" />
        </mxCell>
        <mxCell id="YlZHi-kZIbyjFeBob5CN-20" value="BREAK&lt;br&gt;breaks the loop" style="ellipse;whiteSpace=wrap;html=1;" vertex="1" parent="1">
          <mxGeometry x="540" y="440" width="120" height="80" as="geometry" />
        </mxCell>
        <mxCell id="YlZHi-kZIbyjFeBob5CN-21" value="ask user &quot;Another one?&quot;" style="text;html=1;strokeColor=none;fillColor=none;align=center;verticalAlign=middle;whiteSpace=wrap;rounded=0;" vertex="1" parent="1">
          <mxGeometry x="360" y="530" width="140" height="30" as="geometry" />
        </mxCell>
        <mxCell id="YlZHi-kZIbyjFeBob5CN-34" style="edgeStyle=orthogonalEdgeStyle;rounded=0;orthogonalLoop=1;jettySize=auto;html=1;" edge="1" parent="1" source="YlZHi-kZIbyjFeBob5CN-23" target="YlZHi-kZIbyjFeBob5CN-25">
          <mxGeometry relative="1" as="geometry" />
        </mxCell>
        <mxCell id="YlZHi-kZIbyjFeBob5CN-23" value="IF" style="rhombus;whiteSpace=wrap;html=1;" vertex="1" parent="1">
          <mxGeometry x="310" y="610" width="80" height="80" as="geometry" />
        </mxCell>
        <mxCell id="YlZHi-kZIbyjFeBob5CN-33" style="edgeStyle=orthogonalEdgeStyle;rounded=0;orthogonalLoop=1;jettySize=auto;html=1;entryX=0.5;entryY=0;entryDx=0;entryDy=0;" edge="1" parent="1" source="YlZHi-kZIbyjFeBob5CN-24" target="YlZHi-kZIbyjFeBob5CN-29">
          <mxGeometry relative="1" as="geometry" />
        </mxCell>
        <mxCell id="YlZHi-kZIbyjFeBob5CN-24" value="Yes" style="text;html=1;strokeColor=none;fillColor=none;align=center;verticalAlign=middle;whiteSpace=wrap;rounded=0;" vertex="1" parent="1">
          <mxGeometry x="330" y="720" width="40" height="20" as="geometry" />
        </mxCell>
        <mxCell id="YlZHi-kZIbyjFeBob5CN-42" style="edgeStyle=orthogonalEdgeStyle;rounded=0;orthogonalLoop=1;jettySize=auto;html=1;exitX=1;exitY=0.5;exitDx=0;exitDy=0;entryX=0.5;entryY=1;entryDx=0;entryDy=0;" edge="1" parent="1" source="YlZHi-kZIbyjFeBob5CN-25" target="YlZHi-kZIbyjFeBob5CN-20">
          <mxGeometry relative="1" as="geometry" />
        </mxCell>
        <mxCell id="YlZHi-kZIbyjFeBob5CN-25" value="NO" style="text;html=1;strokeColor=none;fillColor=none;align=center;verticalAlign=middle;whiteSpace=wrap;rounded=0;" vertex="1" parent="1">
          <mxGeometry x="430" y="640" width="40" height="20" as="geometry" />
        </mxCell>
        <mxCell id="YlZHi-kZIbyjFeBob5CN-31" style="edgeStyle=orthogonalEdgeStyle;rounded=0;orthogonalLoop=1;jettySize=auto;html=1;exitX=1;exitY=0.5;exitDx=0;exitDy=0;entryX=0;entryY=0.5;entryDx=0;entryDy=0;entryPerimeter=0;" edge="1" parent="1" source="YlZHi-kZIbyjFeBob5CN-29" target="YlZHi-kZIbyjFeBob5CN-30">
          <mxGeometry relative="1" as="geometry" />
        </mxCell>
        <mxCell id="YlZHi-kZIbyjFeBob5CN-29" value="ELSE" style="rounded=1;whiteSpace=wrap;html=1;" vertex="1" parent="1">
          <mxGeometry x="305" y="770" width="90" height="40" as="geometry" />
        </mxCell>
        <mxCell id="YlZHi-kZIbyjFeBob5CN-30" value="CONTINUE" style="shape=tape;whiteSpace=wrap;html=1;" vertex="1" parent="1">
          <mxGeometry x="460" y="710" width="120" height="100" as="geometry" />
        </mxCell>
        <mxCell id="YlZHi-kZIbyjFeBob5CN-32" value="" style="endArrow=classic;html=1;exitX=0.5;exitY=1;exitDx=0;exitDy=0;entryX=0.5;entryY=0;entryDx=0;entryDy=0;" edge="1" parent="1" source="YlZHi-kZIbyjFeBob5CN-23" target="YlZHi-kZIbyjFeBob5CN-24">
          <mxGeometry width="50" height="50" relative="1" as="geometry">
            <mxPoint x="450" y="630" as="sourcePoint" />
            <mxPoint x="500" y="580" as="targetPoint" />
          </mxGeometry>
        </mxCell>
        <mxCell id="YlZHi-kZIbyjFeBob5CN-38" value="" style="endArrow=classic;html=1;exitX=0.5;exitY=1;exitDx=0;exitDy=0;entryX=0;entryY=0;entryDx=0;entryDy=0;" edge="1" parent="1" source="YlZHi-kZIbyjFeBob5CN-6" target="YlZHi-kZIbyjFeBob5CN-14">
          <mxGeometry width="50" height="50" relative="1" as="geometry">
            <mxPoint x="350" y="380" as="sourcePoint" />
            <mxPoint x="400" y="330" as="targetPoint" />
          </mxGeometry>
        </mxCell>
        <mxCell id="YlZHi-kZIbyjFeBob5CN-43" value="" style="shape=flexArrow;endArrow=classic;html=1;exitX=1;exitY=0.5;exitDx=0;exitDy=0;" edge="1" parent="1" source="YlZHi-kZIbyjFeBob5CN-20">
          <mxGeometry width="50" height="50" relative="1" as="geometry">
            <mxPoint x="680" y="540" as="sourcePoint" />
            <mxPoint x="730" y="480" as="targetPoint" />
          </mxGeometry>
        </mxCell>
      </root>
    </mxGraphModel>
  </diagram>
</mxfile>
